# xmcd CD database file
#
# Track frame offsets:
#	150
#	14183
#	32021
#	37740
#	55354
#	61082
#	71228
#	83109
#	111790
#	119608
#	142685
#	148323
#
# Disc length: 2381 seconds
#
# Revision: 0
# Processed by: cddbd v1.5.2PL0 Copyright (c) Steve Scherf et al.
# Submitted via: CDex 1.70beta2
#
DISCID=ac094b0c
DTITLE=ALMA+ - ALMA
DYEAR=2009
DGENRE=Jazz
TTITLE0=Nobody Can Stop
TTITLE1=Beautiful View
TTITLE2=First Impression
TTITLE3=Flower
TTITLE4=Interlude #1
TTITLE5=Chime
TTITLE6=In A Silent Way
TTITLE7=O Trem Azul
TTITLE8=Interlude #2
TTITLE9=Midnight Jam
TTITLE10=Interlude #3
TTITLE11=Se Eu Quiser Falar Com Deus
EXTD=YEAR: 2009
EXTT0=
EXTT1=
EXTT2=
EXTT3=
EXTT4=
EXTT5=
EXTT6=
EXTT7=
EXTT8=
EXTT9=
EXTT10=
EXTT11=
PLAYORDER=
